<svg xmlns="http://www.w3.org/2000/svg" viewBox="0 0 32 32">
  <!-- Fundo azul -->
  <rect width="32" height="32" fill="#3b82f6" rx="6"/>

  <!-- Ãcone do carro branco -->
  <g fill="#ffffff" transform="translate(4, 8)">
    <!-- Corpo principal do carro -->
    <path d="M3 10h18c1.1 0 2 .9 2 2v4c0 .6-.4 1-1 1h-1c0 1.1-.9 2-2 2s-2-.9-2-2H9c0 1.1-.9 2-2 2s-2-.9-2-2H4c-.6 0-1-.4-1-1v-4c0-1.1.9-2 2-2z"/>

    <!-- Parte frontal do carro -->
    <path d="M3 10l2-3h3l1 3H3z"/>

    <!-- Parte traseira do carro -->
    <path d="M15 10l1-3h3l2 3h-6z"/>

    <!-- Rodas -->
    <circle cx="7" cy="16" r="1.5"/>
    <circle cx="17" cy="16" r="1.5"/>

    <!-- Janelas -->
    <path d="M5 7h14c.6 0 1 .4 1 1v2H4V8c0-.6.4-1 1-1z" fill="#3b82f6"/>
  </g>
</svg>